<svg xmlns="http://www.w3.org/2000/svg" viewBox="0 0 16 16" width="16" height="16">
  <rect width="16" height="16" rx="3" fill="#1d9bf0"/>
  <path fill="white" d="M12.5 5.8c-.15-.15-.4-.15-.55 0l-1.15 1.15V3.9c0-1.07-.87-1.94-1.94-1.94h-3c-.21 0-.39.17-.39.39s.17.39.39.39h3c.64 0 1.16.52 1.16 1.16v3.05l-1.15-1.15c-.15-.15-.4-.15-.55 0s-.15.4 0 .55l1.81 1.81c.08.08.17.11.27.11s.2-.04.27-.11l1.81-1.81c.15-.15.15-.4 0-.55zm-5.5 4.3H4.7c-.64 0-1.16-.52-1.16-1.16V5.9l1.15 1.15c.08.08.18.11.27.11s.2-.04.27-.11c.15-.15.15-.4 0-.55L3.42 4.68c-.15-.15-.4-.15-.55 0L1.06 6.5c-.15.15-.15.4 0 .55s.4.15.55 0l1.15-1.15v3.05c0 1.07.87 1.94 1.94 1.94h3c.21 0 .39-.17.39-.39s-.17-.39-.39-.39z"/>
</svg>
