<svg xmlns="http://www.w3.org/2000/svg" viewBox="0 0 48 48" width="48" height="48">
  <rect width="48" height="48" rx="8" fill="#1d9bf0"/>
  <path fill="white" d="M35.77 18.67c-.29-.29-.77-.29-1.06 0l-3.22 3.22V11.65c0-2.57-2.18-4.75-4.75-4.75h-7.85c-.41 0-.75.34-.75.75s.34.75.75.75h7.85c1.74 0 3.25 1.51 3.25 3.25v10.24l-3.22-3.22c-.29-.29-.77-.29-1.06 0s-.29.77 0 1.06l4.5 4.5c.15.15.34.22.53.22s.38-.07.53-.22l4.5-4.5c.29-.29.29-.77 0-1.06zm-15.66 10.28H12.26c-1.74 0-3.25-1.51-3.25-3.25V15.46l3.22 3.22c.15.15.34.22.53.22s.38-.07.53-.22c.29-.29.29-.77 0-1.06l-4.5-4.5c-.29-.29-.77-.29-1.06 0l-4.5 4.5c-.29.29-.29.77 0 1.06s.77.29 1.06 0l3.22-3.22v10.24c0 2.57 2.18 4.75 4.75 4.75h7.85c.41 0 .75-.34.75-.75s-.34-.75-.75-.75z"/>
</svg>
