<svg xmlns="http://www.w3.org/2000/svg" viewBox="0 0 128 128" width="128" height="128">
  <rect width="128" height="128" rx="24" fill="#1d9bf0"/>
  <path fill="white" d="M95.08 47.34c-.78-.78-2.04-.78-2.83 0l-8.88 8.88V30.6c0-6.9-5.61-12.5-12.5-12.5H49.63c-1.1 0-2 .9-2 2s.9 2 2 2h21.25c4.69 0 8.5 3.81 8.5 8.5v25.62l-8.88-8.88c-.78-.78-2.05-.78-2.83 0-.78.78-.78 2.05 0 2.83l12.25 12.25c.39.39.9.59 1.42.59s1.02-.2 1.42-.59l12.25-12.25c.78-.78.78-2.05 0-2.83zm-38.46 32.56H35.37c-4.69 0-8.5-3.81-8.5-8.5V45.78l8.88 8.88c.39.39.9.59 1.42.59s1.02-.2 1.42-.59c.78-.78.78-2.05 0-2.83L26.33 39.59c-.78-.78-2.04-.78-2.83 0L11.25 51.84c-.78.78-.78 2.05 0 2.83.78.78 2.05.78 2.83 0l8.88-8.88V71.4c0 6.9 5.61 12.5 12.5 12.5h21.25c1.1 0 2-.9 2-2s-.9-2-2-2z"/>
</svg>
