<svg xmlns="http://www.w3.org/2000/svg" viewBox="0 0 32 32" width="32" height="32">
  <rect width="32" height="32" rx="6" fill="#1d9bf0"/>
  <path fill="white" d="M23.77 12.67c-.29-.29-.77-.29-1.06 0l-2.22 2.22V7.65c0-2.07-1.68-3.75-3.75-3.75h-5.85c-.41 0-.75.34-.75.75s.34.75.75.75h5.85c1.24 0 2.25 1.01 2.25 2.25v7.24l-2.22-2.22c-.29-.29-.77-.29-1.06 0s-.29.77 0 1.06l3.5 3.5c.15.15.34.22.53.22s.38-.07.53-.22l3.5-3.5c.29-.29.29-.77 0-1.06zm-10.66 6.28H7.26c-1.24 0-2.25-1.01-2.25-2.25V9.46l2.22 2.22c.15.15.34.22.53.22s.38-.07.53-.22c.29-.29.29-.77 0-1.06l-3.5-3.5c-.29-.29-.77-.29-1.06 0l-3.5 3.5c-.29.29-.29.77 0 1.06s.77.29 1.06 0l2.22-2.22v7.24c0 2.07 1.68 3.75 3.75 3.75h5.85c.41 0 .75-.34.75-.75s-.34-.75-.75-.75z"/>
</svg>
